<svg xmlns="http://www.w3.org/2000/svg" width="32" height="32" viewBox="0 0 32 32" fill="none"><path fill-rule="evenodd" clip-rule="evenodd" d="M12.2252 4.7417C12.1704 4.47565 12.1425 4.20442 12.1425 3.93245C12.1425 1.76188 13.8712 0 16 0C18.1288 0 19.8575 1.76188 19.8575 3.93245C19.8575 4.20442 19.8296 4.47565 19.7748 4.7417L18.5116 10.8647C18.4928 10.9548 18.537 11.0461 18.6182 11.086C18.6994 11.1259 18.7969 11.1041 18.8545 11.0332L22.7627 6.2087C22.9327 5.99882 23.1234 5.80777 23.3318 5.63816C24.9963 4.28497 27.4253 4.56396 28.7527 6.26081C30.0801 7.95765 29.8064 10.4338 28.1419 11.787C27.9335 11.9566 27.708 12.1037 27.4699 12.226L21.9863 15.0366C21.9055 15.078 21.8631 15.17 21.883 15.2594C21.9033 15.3492 21.9809 15.4135 22.0708 15.415L28.2079 15.5218C28.4747 15.5266 28.74 15.5595 29.0002 15.6197C31.0758 16.1026 32.3764 18.2126 31.9026 20.3285C31.4288 22.4444 29.3591 23.7702 27.2836 23.2873C27.0233 23.2267 26.7703 23.1391 26.5278 23.0253L20.9533 20.4072C20.8713 20.3684 20.7742 20.3921 20.718 20.4641C20.6618 20.5358 20.6607 20.6374 20.7158 20.7106L24.4602 25.6685C24.623 25.8839 24.7633 26.116 24.8789 26.3609C25.8028 28.3165 24.9956 30.6685 23.0774 31.61C21.1591 32.5519 18.852 31.729 17.9284 29.7735C17.8124 29.5285 17.7221 29.2717 17.6583 29.0075L16.1903 22.9322C16.1689 22.8427 16.0903 22.7803 16 22.7803C15.9097 22.7803 15.8311 22.8427 15.8097 22.9322L14.342 29.0075C14.2782 29.2717 14.1876 29.5285 14.072 29.7735C13.148 31.729 10.8409 32.5519 8.92263 31.61C7.00476 30.6685 6.19716 28.3165 7.12112 26.3609C7.23675 26.116 7.37703 25.8839 7.53978 25.6685L11.2842 20.7106C11.3393 20.6374 11.3385 20.5358 11.282 20.4641C11.2258 20.3921 11.1287 20.3684 11.0467 20.4072L5.47221 23.0253C5.23007 23.1391 4.9767 23.2267 4.71644 23.2873C2.6409 23.7702 0.571153 22.4444 0.0973956 20.3285C-0.376362 18.2126 0.924207 16.1026 2.99975 15.6197C3.26001 15.5595 3.52571 15.5266 3.79213 15.5218L9.92923 15.415C10.0195 15.4135 10.0967 15.3492 10.117 15.2594C10.1369 15.17 10.0945 15.078 10.0137 15.0366L4.53013 12.226C4.29198 12.1037 4.06652 11.9566 3.8581 11.787C2.1936 10.4338 1.91993 7.95765 3.24732 6.26081C4.57472 4.56396 7.00368 4.28497 8.66817 5.63816C8.8766 5.80777 9.06762 5.99882 9.23726 6.2087L13.1455 11.0332C13.2031 11.1041 13.3006 11.1259 13.3818 11.086C13.463 11.0461 13.5072 10.9548 13.4884 10.8647L12.2252 4.7417Z" fill="#ED1C27"></path></svg>