<svg width="174" height="59" viewBox="0 0 174 59" fill="none" xmlns="http://www.w3.org/2000/svg">
<path d="M24.0876 9.00064C23.5551 9.70532 23.0652 10.3353 22.6179 10.8905C22.192 11.4243 21.9044 11.8834 21.7553 12.2678C21.6062 12.6308 21.6382 12.887 21.8512 13.0365C22.0642 13.186 22.554 13.2073 23.3208 13.1006C23.7468 13.0365 24.1834 12.9511 24.6307 12.8443C25.0993 12.7162 25.6424 12.5454 26.2601 12.3318C26.8991 12.1183 27.6445 11.8621 28.4965 11.5631C29.3485 11.2428 30.3815 10.8691 31.5955 10.442C31.7233 10.3993 31.8511 10.41 31.9789 10.4741C32.1067 10.5168 32.1919 10.6129 32.2345 10.7623C32.2771 10.8905 32.2558 11.0293 32.1706 11.1787C32.0854 11.3069 31.9896 11.3923 31.8831 11.435C31.308 11.7126 30.6797 11.9581 29.9981 12.1717C29.3378 12.3639 28.6988 12.5667 28.0812 12.7803C27.6978 12.9084 27.2079 13.0792 26.6115 13.2928C26.0152 13.4849 25.3975 13.6665 24.7585 13.8373C24.1195 14.0081 23.5019 14.1256 22.9055 14.1896C22.3091 14.2537 21.8192 14.211 21.4358 14.0615C21.1377 13.9334 20.9034 13.7519 20.733 13.517C20.4774 13.1753 20.4241 12.7482 20.5732 12.2357C20.7223 11.7233 20.9673 11.2108 21.308 10.6983C21.6275 10.1858 21.9896 9.70532 22.3943 9.25689C22.799 8.80846 23.1185 8.46679 23.3528 8.2319C23.438 8.14649 23.5445 8.10378 23.6723 8.10378C23.8213 8.10378 23.9491 8.14649 24.0556 8.2319C24.1621 8.31732 24.226 8.43476 24.2473 8.58424C24.2686 8.71236 24.2154 8.85116 24.0876 9.00064ZM24.9502 7.01473C24.7585 6.92932 24.7159 6.76916 24.8224 6.53427C24.9289 6.29938 25.0993 6.08584 25.3336 5.89366C25.5679 5.68012 25.8128 5.54132 26.0684 5.47726C26.3453 5.39184 26.537 5.4559 26.6435 5.66944C26.7713 5.92569 26.75 6.11787 26.5796 6.246C26.4305 6.37412 26.2707 6.49156 26.1004 6.59833C26.0365 6.64104 25.9513 6.71578 25.8448 6.82255C25.7596 6.92932 25.6531 7.02541 25.5253 7.11083C25.4188 7.17489 25.3123 7.2176 25.2058 7.23895C25.0993 7.23895 25.0141 7.16421 24.9502 7.01473Z" fill="#ED1C27"/>
<path d="M33.4927 10.1537C32.3639 11.0293 31.9059 11.6699 32.1189 12.0756C32.3532 12.4813 33.1306 12.6842 34.4512 12.6842C35.218 12.7055 35.9741 12.6415 36.7195 12.492C37.4863 12.3212 38.2424 12.1183 38.9879 11.8834C39.7547 11.6485 40.5214 11.4029 41.2882 11.1467C42.055 10.8691 42.8324 10.6235 43.6205 10.41C43.7696 10.3673 43.8974 10.3886 44.0039 10.4741C44.1316 10.5595 44.2168 10.6662 44.2594 10.7944C44.302 10.9438 44.2914 11.072 44.2275 11.1787C44.1636 11.2641 44.0784 11.3389 43.9719 11.4029C43.8654 11.467 43.7483 11.5204 43.6205 11.5631C43.4927 11.6058 43.3862 11.6378 43.301 11.6592C42.9389 11.7873 42.4171 11.9688 41.7355 12.2037C41.0539 12.4173 40.2978 12.6308 39.4671 12.8443C38.6365 13.0365 37.7739 13.218 36.8793 13.3889C36.006 13.5597 35.1754 13.6558 34.3873 13.6771C33.9187 13.6985 33.4075 13.6665 32.8538 13.581C32.3 13.4743 31.842 13.3034 31.48 13.0685C31.0966 12.8123 30.8942 12.4813 30.8729 12.0756C30.8303 11.6485 31.0966 11.1253 31.6717 10.5061C31.9911 10.1431 32.3639 9.80141 32.7899 9.4811C33.2158 9.13944 33.6738 8.84049 34.1637 8.58424C34.6535 8.30664 35.1647 8.08243 35.6972 7.91159C36.251 7.74076 36.8047 7.64467 37.3585 7.62332C37.6993 7.62332 37.9549 7.70873 38.1253 7.87956C38.317 8.02904 38.4235 8.21055 38.4448 8.42409C38.4874 8.61627 38.4448 8.80846 38.317 9.00064C38.1892 9.19283 37.9975 9.29959 37.7419 9.32095C37.5715 9.3423 37.4437 9.29959 37.3585 9.19282C37.2733 9.0647 37.2201 8.9259 37.1988 8.77643L37.2307 8.68033C36.6131 8.76575 35.9741 8.9259 35.3138 9.16079C34.6535 9.39569 34.0465 9.72667 33.4927 10.1537Z" fill="#ED1C27"/>
<path d="M44.3218 11.2748C44.0662 11.5311 43.9172 11.7553 43.8746 11.9475C43.832 12.1183 43.8639 12.2678 43.9704 12.3959C44.0982 12.5027 44.2792 12.5881 44.5135 12.6521C44.7691 12.6949 45.0567 12.7162 45.3761 12.7162C45.8873 12.7162 46.4411 12.6628 47.0375 12.5561C47.6552 12.4279 48.2728 12.2785 48.8905 12.1076C49.5082 11.9154 50.1046 11.7126 50.6796 11.499C51.276 11.2641 51.8191 11.0506 52.309 10.8584C52.4368 10.8157 52.5859 10.7517 52.7563 10.6662C52.9267 10.5808 53.0971 10.5061 53.2675 10.442C53.4379 10.378 53.5976 10.3566 53.7467 10.378C53.8958 10.378 54.0129 10.4527 54.0981 10.6022C54.1833 10.7303 54.2046 10.8477 54.162 10.9545C54.1407 11.0613 54.0768 11.1574 53.9703 11.2428C53.8851 11.3069 53.768 11.3709 53.6189 11.435C53.4911 11.4777 53.3846 11.5204 53.2994 11.5631C53.0651 11.6699 52.6498 11.8407 52.0534 12.0756C51.4571 12.2891 50.7755 12.5133 50.0087 12.7482C49.2419 12.9831 48.4326 13.1967 47.5806 13.3889C46.7499 13.5597 45.9832 13.6558 45.2803 13.6771C44.5774 13.6985 43.9917 13.6024 43.5231 13.3889C43.0332 13.1753 42.767 12.7909 42.7244 12.2357C42.7031 11.9154 42.8309 11.5524 43.1078 11.1467C43.3847 10.741 43.7468 10.3353 44.194 9.92953C44.6413 9.52381 45.1312 9.15012 45.6637 8.80846C46.2175 8.46679 46.7499 8.19987 47.2611 8.00769C47.7936 7.8155 48.2728 7.71941 48.6988 7.71941C49.1248 7.69806 49.4443 7.82618 49.6573 8.10378C49.8916 8.42409 49.9235 8.70169 49.7531 8.93658C49.5827 9.15012 49.3804 9.3423 49.1461 9.51313C48.4645 10.047 47.7084 10.4527 46.8777 10.7303C46.0471 11.0079 45.1951 11.1894 44.3218 11.2748ZM48.3474 8.80846C47.9001 8.91523 47.4528 9.05402 47.0055 9.22486C46.5795 9.39569 46.1642 9.63058 45.7595 9.92953C46.2068 9.86547 46.6541 9.72667 47.1014 9.51313C47.5487 9.27824 47.964 9.04335 48.3474 8.80846Z" fill="#ED1C27"/>
<path d="M66.5958 10.1537C65.467 11.0293 65.009 11.6699 65.222 12.0756C65.4563 12.4813 66.2337 12.6842 67.5543 12.6842C68.3211 12.7055 69.0772 12.6415 69.8226 12.492C70.5894 12.3212 71.3455 12.1183 72.091 11.8834C72.8578 11.6485 73.6245 11.4029 74.3913 11.1467C75.1581 10.8691 75.9355 10.6235 76.7236 10.41C76.8727 10.3673 77.0004 10.3886 77.1069 10.4741C77.2347 10.5595 77.3199 10.6662 77.3625 10.7944C77.4051 10.9438 77.3945 11.072 77.3306 11.1787C77.2667 11.2641 77.1815 11.3389 77.075 11.4029C76.9685 11.467 76.8514 11.5204 76.7236 11.5631C76.5958 11.6058 76.4893 11.6378 76.4041 11.6592C76.042 11.7873 75.5202 11.9688 74.8386 12.2037C74.157 12.4173 73.4009 12.6308 72.5702 12.8443C71.7396 13.0365 70.8769 13.218 69.9824 13.3889C69.1091 13.5597 68.2785 13.6558 67.4904 13.6771C67.0218 13.6985 66.5106 13.6665 65.9568 13.581C65.4031 13.4743 64.9451 13.3034 64.5831 13.0685C64.1997 12.8123 63.9973 12.4813 63.976 12.0756C63.9334 11.6485 64.1997 11.1253 64.7747 10.5061C65.0942 10.1431 65.467 9.80141 65.8929 9.4811C66.3189 9.13944 66.7769 8.84049 67.2667 8.58424C67.7566 8.30664 68.2678 8.08243 68.8003 7.91159C69.3541 7.74076 69.9078 7.64467 70.4616 7.62332C70.8024 7.62332 71.058 7.70873 71.2284 7.87956C71.4201 8.02904 71.5266 8.21055 71.5479 8.42409C71.5905 8.61627 71.5479 8.80846 71.4201 9.00064C71.2923 9.19283 71.1006 9.29959 70.845 9.32095C70.6746 9.3423 70.5468 9.29959 70.4616 9.19282C70.3764 9.0647 70.3232 8.9259 70.3019 8.77643L70.3338 8.68033C69.7161 8.76575 69.0772 8.9259 68.4169 9.16079C67.7566 9.39569 67.1496 9.72667 66.5958 10.1537Z" fill="#ED1C27"/>
<path d="M83.1757 7.20692C83.2609 7.44181 83.2076 7.69806 83.0159 7.97566C82.8243 8.2319 82.558 8.48815 82.2172 8.74439C81.8978 9.00064 81.525 9.24621 81.099 9.4811C80.673 9.71599 80.2684 9.91886 79.885 10.0897C80.1832 10.047 80.4707 10.0043 80.7476 9.96156C81.0245 9.91886 81.312 9.87615 81.6102 9.83344C81.8658 9.79073 82.0575 9.86547 82.1853 10.0577C82.2705 10.1858 82.2279 10.3886 82.0575 10.6662C81.9084 10.9438 81.7061 11.2428 81.4505 11.5631C81.0458 12.0542 80.6944 12.492 80.3962 12.8764C80.098 13.2607 79.9489 13.5704 79.9489 13.8053C79.9489 14.0188 80.1299 14.1362 80.492 14.1576C80.8541 14.1576 81.5037 14.0188 82.4409 13.7412C83.016 13.5917 83.591 13.3782 84.1661 13.1006C84.7625 12.823 85.3482 12.5347 85.9233 12.2357C86.5197 11.9154 87.1054 11.5951 87.6805 11.2748C88.2555 10.9545 88.82 10.6662 89.3737 10.41C89.5441 10.3246 89.6932 10.3139 89.821 10.378C89.9488 10.4207 90.0447 10.5061 90.1086 10.6342C90.1725 10.741 90.1831 10.8691 90.1405 11.0186C90.1192 11.1467 90.034 11.2535 89.8849 11.3389C89.3098 11.7019 88.6389 12.0756 87.8721 12.46C87.1267 12.8443 86.3493 13.218 85.5399 13.581C84.7305 13.9227 83.9212 14.2323 83.1118 14.5099C82.3237 14.7875 81.5996 15.0011 80.9393 15.1505C80.3642 15.2787 79.8956 15.2893 79.5335 15.1826C79.1928 15.0758 78.9585 14.8836 78.8307 14.606C78.7029 14.3284 78.6816 13.9974 78.7668 13.6131C78.8733 13.2287 79.0863 12.823 79.4057 12.3959L80.492 11.0186L79.3099 11.2108C79.0117 11.2535 78.7242 11.3175 78.4473 11.4029C78.1704 11.4884 77.9148 11.5097 77.6805 11.467C77.2119 11.3816 76.9351 11.136 76.8499 10.7303C76.7647 10.3032 76.9989 9.72667 77.5527 9.00064C77.8083 8.65898 78.1491 8.34935 78.5751 8.07175C79.0011 7.77279 79.4377 7.52723 79.885 7.33504C80.3323 7.1215 80.7582 6.96135 81.1629 6.85458C81.5889 6.72646 81.919 6.6624 82.1533 6.6624C82.345 6.64104 82.5367 6.68375 82.7284 6.79052C82.9414 6.87593 83.0905 7.01473 83.1757 7.20692ZM78.3834 9.57719C79.2567 9.3423 79.9489 9.04335 80.4601 8.68033C80.9925 8.31732 81.4185 8.01836 81.738 7.78347C81.9723 7.63399 81.9936 7.59129 81.8019 7.65535C81.6315 7.71941 81.3653 7.84753 81.0032 8.03972C80.6411 8.2319 80.2471 8.44544 79.8211 8.68033C79.3951 8.91523 79.0543 9.10741 78.7987 9.25689L78.3834 9.57719Z" fill="#ED1C27"/>
<path d="M89.9985 11.2748C89.7429 11.5311 89.5938 11.7553 89.5512 11.9475C89.5086 12.1183 89.5406 12.2678 89.6471 12.3959C89.7748 12.5027 89.9559 12.5881 90.1902 12.6521C90.4458 12.6949 90.7333 12.7162 91.0528 12.7162C91.564 12.7162 92.1178 12.6628 92.7141 12.5561C93.3318 12.4279 93.9495 12.2785 94.5671 12.1076C95.1848 11.9154 95.7812 11.7126 96.3563 11.499C96.9527 11.2641 97.4958 11.0506 97.9857 10.8584C98.1135 10.8157 98.2626 10.7517 98.4329 10.6662C98.6033 10.5808 98.7737 10.5061 98.9441 10.442C99.1145 10.378 99.2743 10.3566 99.4234 10.378C99.5725 10.378 99.6896 10.4527 99.7748 10.6022C99.86 10.7303 99.8813 10.8477 99.8387 10.9545C99.8174 11.0613 99.7535 11.1574 99.647 11.2428C99.5618 11.3069 99.4447 11.3709 99.2956 11.435C99.1678 11.4777 99.0613 11.5204 98.9761 11.5631C98.7418 11.6699 98.3264 11.8407 97.7301 12.0756C97.1337 12.2891 96.4521 12.5133 95.6854 12.7482C94.9186 12.9831 94.1092 13.1967 93.2573 13.3889C92.4266 13.5597 91.6598 13.6558 90.9569 13.6771C90.2541 13.6985 89.6684 13.6024 89.1998 13.3889C88.7099 13.1753 88.4436 12.7909 88.4011 12.2357C88.3798 11.9154 88.5076 11.5524 88.7844 11.1467C89.0613 10.741 89.4234 10.3353 89.8707 9.92953C90.318 9.52381 90.8079 9.15012 91.3403 8.80846C91.8941 8.46679 92.4266 8.19987 92.9378 8.00769C93.4703 7.8155 93.9495 7.71941 94.3755 7.71941C94.8014 7.69806 95.1209 7.82618 95.3339 8.10378C95.5682 8.42409 95.6002 8.70169 95.4298 8.93658C95.2594 9.15012 95.057 9.3423 94.8227 9.51313C94.1412 10.047 93.3851 10.4527 92.5544 10.7303C91.7237 11.0079 90.8718 11.1894 89.9985 11.2748ZM94.024 8.80846C93.5767 8.91523 93.1295 9.05402 92.6822 9.22486C92.2562 9.39569 91.8409 9.63058 91.4362 9.92953C91.8835 9.86547 92.3307 9.72667 92.778 9.51313C93.2253 9.27824 93.6406 9.04335 94.024 8.80846Z" fill="#ED1C27"/>
<path d="M105.549 10.4741C104.889 11.4777 104.665 12.1076 104.878 12.3639C105.112 12.5988 105.73 12.5881 106.731 12.3318C107.37 12.161 108.062 11.9368 108.808 11.6592C109.575 11.3816 110.576 10.9438 111.811 10.3459C112.003 10.2605 112.162 10.2498 112.29 10.3139C112.418 10.3566 112.503 10.442 112.546 10.5701C112.588 10.6769 112.599 10.7944 112.578 10.9225C112.556 11.0506 112.482 11.1467 112.354 11.2108C111.46 11.7019 110.512 12.1397 109.511 12.524C108.51 12.9084 107.509 13.218 106.507 13.4529C106.294 13.4956 106.06 13.549 105.805 13.6131C105.57 13.6771 105.325 13.7092 105.07 13.7092C104.835 13.7092 104.612 13.6771 104.399 13.6131C104.186 13.5277 104.005 13.3675 103.856 13.1326C103.664 12.8123 103.611 12.4493 103.696 12.0436C103.802 11.6165 103.941 11.2535 104.111 10.9545C103.685 11.2321 103.259 11.5097 102.833 11.7873C102.407 12.0649 101.96 12.3105 101.492 12.524C101.321 12.6094 101.108 12.7162 100.853 12.8443C100.597 12.9511 100.331 13.0472 100.054 13.1326C99.7982 13.218 99.5427 13.2714 99.2871 13.2928C99.0102 13.3141 98.7759 13.2714 98.5842 13.1646C98.1369 12.9297 97.9452 12.6094 98.0091 12.2037C98.073 11.7766 98.2967 11.3389 98.68 10.8905C99.0634 10.442 99.5533 10.0043 100.15 9.57719C100.767 9.15012 101.406 8.80846 102.067 8.55221C102.727 8.27461 103.366 8.12513 103.984 8.10378C104.601 8.06107 105.112 8.19987 105.517 8.52018L106.06 8.03972C106.188 7.93295 106.316 7.87956 106.444 7.87956C106.593 7.87956 106.71 7.92227 106.795 8.00769C106.88 8.0931 106.923 8.21055 106.923 8.36003C106.944 8.48815 106.902 8.62695 106.795 8.77643C106.625 8.98996 106.422 9.24621 106.188 9.54516C105.975 9.84412 105.762 10.1537 105.549 10.4741ZM100.757 11.7553C101.119 11.5845 101.492 11.3816 101.875 11.1467C102.28 10.9118 102.663 10.6769 103.025 10.442C103.387 10.1858 103.707 9.95089 103.984 9.73735C104.282 9.52381 104.505 9.35298 104.654 9.22486C104.505 9.07538 104.25 9.01132 103.888 9.03267C103.526 9.05402 103.132 9.15012 102.706 9.32095C102.28 9.47042 101.843 9.67329 101.396 9.92953C100.97 10.1644 100.597 10.4207 100.277 10.6983C99.9793 10.9332 99.7344 11.1681 99.5427 11.4029C99.3723 11.6378 99.2977 11.83 99.319 11.9795C99.3403 12.1076 99.4575 12.1717 99.6705 12.1717C99.9048 12.1503 100.267 12.0115 100.757 11.7553Z" fill="#ED1C27"/>
<path d="M115.909 9.16079C116.143 9.31027 116.261 9.47042 116.261 9.64126C116.261 9.81209 116.261 10.0256 116.261 10.2819C116.239 10.773 116.388 11.0293 116.708 11.0506C117.049 11.072 117.539 10.9225 118.177 10.6022C118.816 10.2392 119.434 9.86547 120.031 9.4811C120.648 9.07538 121.277 8.69101 121.915 8.32799C122.15 8.19987 122.373 8.10378 122.586 8.03972C122.799 7.97566 123.044 7.99701 123.321 8.10378C123.726 8.27461 123.992 8.59492 124.12 9.0647C124.163 9.19282 124.184 9.36366 124.184 9.57719C124.205 9.79073 124.237 10.0149 124.28 10.2498C124.344 10.6769 124.514 10.9652 124.791 11.1147C125.068 11.2428 125.387 11.2962 125.749 11.2748C126.111 11.2321 126.495 11.1467 126.899 11.0186C127.325 10.8691 127.719 10.7303 128.082 10.6022C128.295 10.5381 128.518 10.4527 128.753 10.3459C128.987 10.2178 129.189 10.2819 129.36 10.5381C129.423 10.6449 129.445 10.7837 129.423 10.9545C129.402 11.104 129.328 11.2108 129.2 11.2748C128.689 11.5311 128.103 11.7766 127.443 12.0115C126.804 12.2251 126.186 12.3532 125.59 12.3959C125.015 12.4173 124.503 12.2891 124.056 12.0115C123.609 11.7126 123.332 11.1787 123.225 10.41C123.183 10.047 123.14 9.76938 123.098 9.57719C123.076 9.36366 123.012 9.23553 122.906 9.19282C122.799 9.12876 122.64 9.15012 122.427 9.25689C122.235 9.3423 121.947 9.50246 121.564 9.73735C121.202 9.95089 120.829 10.1858 120.446 10.442C120.084 10.6769 119.711 10.9118 119.328 11.1467C118.966 11.3602 118.614 11.5524 118.273 11.7233C117.933 11.8941 117.634 12.0222 117.379 12.1076C117.144 12.1717 116.9 12.193 116.644 12.1717C116.388 12.129 116.154 12.0542 115.941 11.9475C115.749 11.8407 115.579 11.7019 115.43 11.5311C115.281 11.3389 115.196 11.1253 115.174 10.8905C115.153 10.6983 115.142 10.5488 115.142 10.442C115.164 10.3139 115.164 10.2285 115.142 10.1858C115.121 10.1431 115.057 10.1644 114.951 10.2498C114.844 10.3139 114.652 10.442 114.376 10.6342C113.928 10.9545 113.406 11.3816 112.81 11.9154C112.214 12.4493 111.607 13.0045 110.989 13.581C110.883 13.6878 110.776 13.7412 110.67 13.7412C110.542 13.7198 110.435 13.6771 110.35 13.6131C110.244 13.549 110.18 13.4636 110.158 13.3568C110.116 13.2287 110.126 13.1006 110.19 12.9725C110.339 12.7376 110.488 12.5133 110.638 12.2998C110.765 12.0649 110.914 11.83 111.085 11.5951C111.639 10.8264 112.203 10.0577 112.778 9.28892C113.353 8.49883 113.95 7.75144 114.567 7.04676C114.652 6.93999 114.759 6.88661 114.887 6.88661C115.036 6.88661 115.153 6.92932 115.238 7.01473C115.345 7.07879 115.409 7.18556 115.43 7.33504C115.472 7.46316 115.43 7.61264 115.302 7.78347C115.004 8.21055 114.684 8.63762 114.344 9.0647C114.024 9.47042 113.683 9.87615 113.321 10.2819C113.492 10.1965 113.673 10.0577 113.864 9.86547C114.077 9.67329 114.29 9.50246 114.503 9.35298C114.738 9.2035 114.972 9.09673 115.206 9.03267C115.441 8.96861 115.675 9.01132 115.909 9.16079Z" fill="#ED1C27"/>
<path d="M134.611 11.2428C135.229 11.0506 135.836 10.8798 136.432 10.7303C137.05 10.5595 137.667 10.4207 138.285 10.3139C138.498 10.2712 138.658 10.3032 138.764 10.41C138.892 10.4954 138.956 10.6022 138.956 10.7303C138.977 10.8584 138.956 10.9865 138.892 11.1147C138.828 11.2214 138.732 11.2855 138.604 11.3069C137.88 11.4563 137.167 11.6165 136.464 11.7873C135.782 11.9368 135.101 12.1397 134.419 12.3959H134.387C134.217 12.823 133.94 13.2607 133.557 13.7092C133.173 14.1362 132.726 14.542 132.215 14.9263C131.725 15.3107 131.214 15.663 130.681 15.9833C130.17 16.2823 129.712 16.5279 129.307 16.7201C129.052 16.8268 128.732 16.9656 128.349 17.1365C127.944 17.2859 127.593 17.3073 127.295 17.2005C126.954 17.0937 126.751 16.8695 126.688 16.5279C126.624 16.2076 126.709 15.8873 126.943 15.5669C127.156 15.2466 127.433 14.9477 127.774 14.6701C128.115 14.3711 128.477 14.1042 128.86 13.8693C129.222 13.6344 129.52 13.4529 129.755 13.3248C130.351 12.9831 130.979 12.6628 131.64 12.3639C132.3 12.0649 132.95 11.798 133.588 11.5631C133.588 11.3069 133.397 11.1467 133.013 11.0826C132.651 10.9972 132.225 10.9652 131.735 10.9865C131.267 10.9865 130.798 11.0186 130.33 11.0826C129.882 11.1253 129.574 11.1574 129.403 11.1787C129.126 11.2001 128.967 11.0826 128.924 10.8264C128.86 10.5701 128.935 10.3673 129.148 10.2178C129.51 9.98292 129.893 9.7587 130.298 9.54516C130.702 9.31027 131.096 9.07538 131.48 8.84049C131.906 8.60559 132.321 8.36003 132.726 8.10378C133.131 7.82618 133.546 7.58061 133.972 7.36707C134.121 7.28166 134.259 7.27098 134.387 7.33504C134.536 7.37775 134.643 7.46316 134.707 7.59129C134.771 7.69806 134.792 7.82618 134.771 7.97566C134.749 8.10378 134.664 8.21055 134.515 8.29596L131.544 10.0256C131.778 10.0256 132.066 10.0256 132.406 10.0256C132.747 10.0043 133.077 10.0256 133.397 10.0897C133.716 10.1537 133.993 10.2712 134.227 10.442C134.462 10.6129 134.59 10.8798 134.611 11.2428ZM127.742 16.1755C128.083 16.2396 128.487 16.1542 128.956 15.9193C129.403 15.6844 129.85 15.4068 130.298 15.0865C130.766 14.7448 131.214 14.3925 131.64 14.0295C132.066 13.6451 132.406 13.3355 132.662 13.1006C132.279 13.2287 131.863 13.3995 131.416 13.6131C130.99 13.8266 130.553 14.0722 130.106 14.3498C129.659 14.606 129.233 14.8943 128.828 15.2146C128.402 15.5136 128.04 15.8339 127.742 16.1755Z" fill="#ED1C27"/>
<path d="M13.4433 29.6163C13.4433 30.2146 13.3204 30.6603 13.0747 30.9535C12.8407 31.2468 12.5599 31.4873 12.2323 31.6749C11.9164 31.8626 11.6356 32.0796 11.3899 32.326C11.1559 32.5723 11.0389 32.9476 11.0389 33.452V46.5251C11.0389 46.9943 11.1325 47.3814 11.3197 47.6864C11.5186 47.9797 11.8755 48.1263 12.3903 48.1263H13.2853C14.1745 48.1263 14.8648 47.9503 15.3562 47.5984C15.8476 47.2348 16.2278 46.7949 16.4969 46.2788C16.7777 45.751 17.0234 45.229 17.234 44.7128C17.4446 44.185 17.702 43.7451 18.0062 43.3932C18.3104 43.0296 18.7492 42.8478 19.3225 42.8478C19.9075 42.8478 20.3989 43.0179 20.7967 43.358C21.1945 43.6865 21.3934 44.1557 21.3934 44.7656C21.3934 45.0237 21.3583 45.2759 21.2881 45.5222L20.0947 49.8858C19.8724 50.6717 19.5799 51.3344 19.2172 51.874C18.8662 52.4019 18.2227 52.6658 17.2867 52.6658C16.924 52.6658 16.5613 52.6189 16.1986 52.525C15.8476 52.4312 15.4966 52.3432 15.1456 52.2611C14.8297 52.179 14.5138 52.1203 14.1979 52.0852C13.882 52.0617 13.5603 52.05 13.2327 52.05H2.10599C1.4742 52.05 0.965247 51.8975 0.579148 51.5925C0.193049 51.2875 0 50.8007 0 50.1321C0 49.5222 0.12285 49.0705 0.368549 48.7773C0.614248 48.484 0.895047 48.2494 1.21095 48.0735C1.52684 47.8858 1.80764 47.6688 2.05334 47.4225C2.29904 47.1762 2.42189 46.8008 2.42189 46.2964V33.452C2.42189 32.9476 2.29904 32.5723 2.05334 32.326C1.80764 32.0796 1.52684 31.8685 1.21095 31.6925C0.895047 31.5049 0.614248 31.2644 0.368549 30.9711C0.12285 30.6779 0 30.2263 0 29.6163C0 28.9477 0.193049 28.4609 0.579148 28.1559C0.965247 27.851 1.4742 27.6985 2.10599 27.6985H11.3373C11.9691 27.6985 12.478 27.851 12.8641 28.1559C13.2502 28.4609 13.4433 28.9477 13.4433 29.6163Z" fill="#ED1C27"/>
<path d="M39.9437 40.4197C39.9437 41.4636 39.6336 42.2554 39.0135 42.795C38.4051 43.3346 37.5978 43.6044 36.5916 43.6044H29.519C29.7881 44.6131 30.2678 45.4636 30.9581 46.1556C31.6484 46.836 32.6429 47.1762 33.9416 47.1762C34.4564 47.1762 34.9653 47.0706 35.4684 46.8594C35.9832 46.6366 36.4629 46.3785 36.9075 46.0853C37.3638 45.792 37.7616 45.5398 38.1009 45.3287C38.4402 45.1058 38.6976 44.9944 38.8731 44.9944C39.2124 44.9944 39.4581 45.1175 39.6102 45.3639C39.7623 45.5985 39.8384 45.8683 39.8384 46.1732C39.8384 47.2407 39.5868 48.1791 39.0837 48.9884C38.5923 49.7861 37.9371 50.4488 37.1181 50.9767C36.3108 51.5045 35.4216 51.8975 34.4505 52.1555C33.4911 52.4253 32.5434 52.5602 31.6074 52.5602C29.7706 52.5602 28.1501 52.179 26.7461 51.4165C25.3421 50.6541 24.2423 49.5867 23.4467 48.2143C22.6628 46.8301 22.2709 45.2055 22.2709 43.3404C22.2709 41.3463 22.6511 39.6103 23.4116 38.1323C24.1838 36.6543 25.2895 35.5107 26.7286 34.7013C28.1677 33.8802 29.8934 33.4696 31.9058 33.4696C33.2981 33.4696 34.6026 33.7336 35.8194 34.2614C37.0479 34.7893 38.0424 35.5693 38.8029 36.6015C39.5634 37.6338 39.9437 38.9065 39.9437 40.4197ZM29.2031 40.8947C29.2031 41.0238 29.2031 41.1528 29.2031 41.2818H31.0283C31.4729 41.2818 31.7771 41.1821 31.9409 40.9827C32.1047 40.7716 32.1866 40.4549 32.1866 40.0326C32.1866 39.7511 32.1515 39.3816 32.0813 38.9241C32.0111 38.4666 31.8707 38.0561 31.6601 37.6924C31.4612 37.3288 31.1687 37.147 30.7826 37.147C30.4316 37.147 30.1508 37.2936 29.9402 37.5869C29.7296 37.8684 29.5717 38.2262 29.4664 38.6602C29.3611 39.0824 29.2909 39.4989 29.2558 39.9094C29.2207 40.32 29.2031 40.6484 29.2031 40.8947Z" fill="#ED1C27"/>
<path d="M50.4736 27.2586V35.5634C51.1288 34.9417 51.8601 34.4374 52.6674 34.0503C53.4864 33.6632 54.3814 33.4696 55.3525 33.4696C56.5459 33.4696 57.5814 33.7336 58.4589 34.2614C59.3481 34.7893 60.0793 35.4872 60.6526 36.3552C61.2376 37.2232 61.6705 38.1851 61.9513 39.2408C62.2438 40.2965 62.39 41.3522 62.39 42.4079C62.39 44.1674 62.0507 45.8213 61.3721 47.3697C60.6936 48.9181 59.6991 50.1732 58.3887 51.135C57.09 52.0852 55.4871 52.5602 53.58 52.5602C52.7259 52.5602 51.9478 52.4312 51.2458 52.1731C50.5438 51.9151 49.9062 51.5514 49.3329 51.0822C48.4554 51.4107 47.5194 51.7333 46.5249 52.05C45.5304 52.3667 44.6529 52.525 43.8924 52.525C43.4829 52.525 43.1612 52.396 42.9272 52.1379C42.7049 51.8799 42.5937 51.5514 42.5937 51.1526V32.713C42.5937 32.1852 42.5118 31.7922 42.348 31.5342C42.1842 31.2644 41.9912 31.0532 41.7689 30.9008C41.5466 30.7365 41.3535 30.5606 41.1897 30.3729C41.0259 30.1852 40.944 29.9037 40.944 29.5283C40.944 29.0474 41.0903 28.6838 41.3828 28.4375C41.6753 28.1794 42.0204 27.9741 42.4182 27.8216L46.1914 26.2909C46.636 26.1032 47.0923 25.939 47.5603 25.7982C48.0283 25.6574 48.508 25.5871 48.9994 25.5871C49.4791 25.5871 49.8418 25.7571 50.0875 26.0973C50.3449 26.4258 50.4736 26.8129 50.4736 27.2586ZM51.667 38.0443C51.2341 38.0443 50.8363 38.191 50.4736 38.4842V47.88C50.6608 48.0794 50.8714 48.2436 51.1054 48.3726C51.3394 48.4899 51.6027 48.5486 51.8952 48.5486C52.4217 48.5486 52.8429 48.355 53.1588 47.9679C53.4747 47.5691 53.7087 47.0764 53.8608 46.4899C54.0246 45.9034 54.1299 45.3169 54.1767 44.7304C54.2235 44.1439 54.2469 43.663 54.2469 43.2877C54.2469 42.8771 54.2176 42.3786 54.1591 41.7921C54.1006 41.2056 53.9778 40.6249 53.7906 40.0502C53.6151 39.4754 53.3577 39.0003 53.0184 38.625C52.6791 38.2379 52.2286 38.0443 51.667 38.0443Z" fill="#ED1C27"/>
<path d="M64.0748 48.0031C64.0748 46.924 64.3264 46.0266 64.8295 45.3111C65.3326 44.5838 65.9878 44.0032 66.7951 43.5692C67.6141 43.1234 68.4974 42.8067 69.4451 42.619C70.3928 42.4314 71.3054 42.3375 72.1829 42.3375C72.4403 42.3375 72.7036 42.3434 72.9727 42.3551C73.2418 42.3551 73.505 42.3786 73.7624 42.4255V37.8508C73.7624 37.5575 73.6981 37.2174 73.5694 36.8303C73.4524 36.4432 73.2067 36.2496 72.8323 36.2496C72.4696 36.2496 72.2414 36.4021 72.1478 36.7071C72.0659 37.0004 72.025 37.2819 72.025 37.5517C72.025 37.669 72.025 37.7921 72.025 37.9212C72.0367 38.0385 72.0425 38.1616 72.0425 38.2907C72.0425 39.4989 71.6272 40.3493 70.7965 40.8419C69.9658 41.3229 69.0181 41.5633 67.9534 41.5633C67.0642 41.5633 66.292 41.3639 65.6368 40.9651C64.9816 40.5663 64.654 39.8625 64.654 38.8537C64.654 38.4549 64.73 38.0678 64.8821 37.6924C65.0459 37.3171 65.2507 36.9828 65.4964 36.6895C66.2101 35.8215 67.1051 35.1588 68.1815 34.7013C69.2696 34.2438 70.4104 33.933 71.6038 33.7687C72.8089 33.5928 73.9379 33.5048 74.9909 33.5048C76.1843 33.5048 77.2782 33.6749 78.2727 34.0151C79.2672 34.3552 80.0628 34.9242 80.6595 35.7218C81.2562 36.5077 81.5546 37.5693 81.5546 38.9065V47.0178C81.5546 47.2172 81.6014 47.3932 81.695 47.5456C81.7886 47.6981 81.9465 47.7744 82.1688 47.7744C82.3443 47.7744 82.4906 47.7216 82.6076 47.616C82.7363 47.4987 82.8884 47.4401 83.0639 47.4401C83.4032 47.4401 83.6547 47.5574 83.8185 47.792C83.994 48.0266 84.0818 48.3022 84.0818 48.6189C84.0818 49.44 83.8302 50.1497 83.3271 50.7479C82.8357 51.3344 82.2215 51.7802 81.4844 52.0852C80.7473 52.4019 80.0043 52.5602 79.2555 52.5602C78.378 52.5602 77.4888 52.3667 76.5879 51.9796C75.6987 51.5925 75.0845 50.9884 74.7452 50.1673C74.1485 51.0001 73.3295 51.6101 72.2882 51.9972C71.2586 52.3725 70.2466 52.5602 69.2521 52.5602C68.3395 52.5602 67.4854 52.3901 66.6898 52.05C65.9059 51.6981 65.2741 51.1819 64.7944 50.5016C64.3147 49.8213 64.0748 48.9884 64.0748 48.0031ZM71.9899 46.4548C71.9899 46.924 72.101 47.3697 72.3233 47.792C72.5456 48.2025 72.9259 48.4078 73.4641 48.4078C73.5694 48.4078 73.6688 48.3961 73.7624 48.3726V44.7304C73.5635 44.6483 73.3588 44.6073 73.1482 44.6073C72.7036 44.6073 72.3994 44.8301 72.2356 45.2759C72.0718 45.7099 71.9899 46.1029 71.9899 46.4548Z" fill="#ED1C27"/>
<path d="M104.966 53.4576C104.966 54.4312 104.662 55.2464 104.054 55.9033C103.445 56.5719 102.655 57.1115 101.684 57.522C100.725 57.9326 99.6895 58.2434 98.578 58.4546C97.4782 58.6657 96.4135 58.8065 95.3839 58.8768C94.366 58.9589 93.5119 59 92.8216 59C92.3536 59 91.7569 58.9824 91.0315 58.9472C90.3178 58.9238 89.5691 58.8534 88.7852 58.7361C88.0013 58.6188 87.2642 58.4311 86.5739 58.173C85.8953 57.9267 85.3395 57.5807 84.9066 57.1349C84.4737 56.6892 84.2573 56.1261 84.2573 55.4458C84.2573 54.6012 84.5849 53.9385 85.2401 53.4576C85.8953 52.9884 86.685 52.6365 87.6093 52.4019C87.1881 52.2376 86.8371 52.003 86.5563 51.6981C86.2755 51.3814 86.1351 50.9591 86.1351 50.4312C86.1351 49.7274 86.3574 49.1644 86.802 48.7421C87.2583 48.3198 87.8316 48.0031 88.5219 47.792C89.2239 47.5691 89.9376 47.4108 90.663 47.3169C89.6217 47.0706 88.6448 46.6952 87.7322 46.1908C86.8313 45.6864 86.1 45.012 85.5384 44.1674C84.9885 43.3228 84.7136 42.2789 84.7136 41.0355C84.7136 39.6983 84.971 38.5663 85.4858 37.6397C86.0123 36.7012 86.7143 35.9447 87.5918 35.3699C88.4693 34.7834 89.4521 34.3494 90.5402 34.0679C91.6399 33.7746 92.7631 33.6104 93.9097 33.5752C94.2724 32.6133 94.7053 31.6515 95.2084 30.6896C95.7232 29.7278 96.3726 28.9243 97.1565 28.2791C97.9521 27.634 98.9349 27.3114 100.105 27.3114C101.064 27.3114 101.854 27.5929 102.474 28.1559C103.106 28.719 103.422 29.4932 103.422 30.4785C103.422 31.2761 103.223 32.0034 102.825 32.6603C102.439 33.3054 101.796 33.628 100.895 33.628C100.263 33.628 99.7773 33.4696 99.438 33.1529C99.0987 32.8245 98.8062 32.496 98.5605 32.1676C98.3148 31.8392 98.0223 31.6749 97.683 31.6749C97.3203 31.6749 97.0102 31.9037 96.7528 32.3611C96.4954 32.8069 96.2907 33.235 96.1386 33.6456C97.3905 33.7981 98.578 34.1382 99.7012 34.6661C100.824 35.1822 101.737 35.9153 102.439 36.8655C103.153 37.8156 103.51 39.0121 103.51 40.4549C103.51 41.7334 103.246 42.836 102.72 43.7627C102.205 44.6777 101.509 45.4284 100.631 46.0149C99.7656 46.6014 98.7886 47.0354 97.7005 47.3169C96.6241 47.5867 95.5243 47.7216 94.4011 47.7216C94.0384 47.7216 93.6816 47.7099 93.3306 47.6864C93.1902 47.8272 93.12 47.9679 93.12 48.1087C93.12 48.3433 93.2896 48.5134 93.6289 48.6189C93.9799 48.7128 94.3953 48.7714 94.875 48.7949C95.3547 48.8184 95.8051 48.8242 96.2263 48.8125C96.6592 48.8008 96.9576 48.7949 97.1214 48.7949C97.9638 48.7949 98.8413 48.8359 99.7539 48.9181C100.666 48.9884 101.515 49.1702 102.299 49.4635C103.094 49.7568 103.738 50.2201 104.229 50.8535C104.721 51.4752 104.966 52.3432 104.966 53.4576ZM93.6114 36.2672C93.2721 36.2672 93.0322 36.408 92.8918 36.6895C92.7514 36.971 92.6637 37.2936 92.6286 37.6572C92.6052 38.0209 92.5935 38.32 92.5935 38.5546C92.5935 38.8713 92.611 39.3816 92.6461 40.0854C92.6929 40.7774 92.7807 41.5047 92.9094 42.2671C93.0381 43.0296 93.2311 43.6806 93.4885 44.2202C93.7576 44.748 94.1203 45.012 94.5766 45.012C94.9393 45.012 95.1967 44.8829 95.3488 44.6249C95.5009 44.3551 95.5887 44.0442 95.6121 43.6923C95.6472 43.3404 95.6647 43.0355 95.6647 42.7774C95.6647 42.4372 95.6472 41.9152 95.6121 41.2114C95.577 40.4959 95.4951 39.7628 95.3664 39.0121C95.2494 38.2496 95.0505 37.6045 94.7697 37.0766C94.4889 36.537 94.1028 36.2672 93.6114 36.2672ZM90.5577 54.0382C90.5577 54.4018 90.7332 54.6892 91.0842 54.9004C91.4469 55.1115 91.8798 55.2699 92.3829 55.3754C92.8977 55.481 93.3891 55.5455 93.8571 55.569C94.3251 55.6042 94.6702 55.6218 94.8925 55.6218C95.1499 55.6218 95.536 55.5807 96.0508 55.4986C96.5773 55.4282 97.0629 55.2933 97.5075 55.0939C97.9521 54.8945 98.1744 54.6071 98.1744 54.2318C98.1744 53.7039 97.9521 53.3344 97.5075 53.1233C97.0746 52.9121 96.5832 52.789 96.0333 52.7538C95.4834 52.7186 95.0271 52.701 94.6644 52.701C94.1262 52.701 93.588 52.7127 93.0498 52.7362C92.5116 52.7596 91.9734 52.7772 91.4352 52.789C91.1895 52.9649 90.9789 53.1585 90.8034 53.3696C90.6396 53.5807 90.5577 53.8036 90.5577 54.0382Z" fill="#ED1C27"/>
<path d="M115.531 33.4696C117.462 33.4696 119.152 33.8685 120.603 34.6661C122.066 35.4637 123.206 36.584 124.025 38.0267C124.844 39.4695 125.254 41.1645 125.254 43.1117C125.254 45.0237 124.803 46.6894 123.903 48.1087C123.002 49.5163 121.791 50.613 120.27 51.399C118.76 52.1731 117.082 52.5602 115.233 52.5602C113.291 52.5602 111.588 52.1614 110.126 51.3638C108.663 50.5544 107.523 49.4224 106.704 47.9679C105.896 46.5017 105.493 44.795 105.493 42.8478C105.493 40.9475 105.949 39.2936 106.862 37.886C107.774 36.4784 108.991 35.3934 110.512 34.6309C112.033 33.8567 113.706 33.4696 115.531 33.4696ZM116.532 48.6717C116.824 48.6717 117.029 48.5192 117.146 48.2143C117.275 47.9093 117.356 47.575 117.392 47.2113C117.427 46.836 117.444 46.5486 117.444 46.3492C117.444 45.6806 117.392 45.0178 117.286 44.3609C117.181 43.6923 117.046 43.0355 116.883 42.3903C116.824 42.1322 116.713 41.7334 116.549 41.1938C116.385 40.6425 116.186 40.0678 115.952 39.4695C115.718 38.8713 115.461 38.361 115.18 37.9388C114.899 37.5165 114.601 37.3053 114.285 37.3053C114.016 37.3053 113.817 37.4578 113.689 37.7628C113.572 38.0678 113.495 38.408 113.46 38.7833C113.425 39.147 113.408 39.4226 113.408 39.6103C113.408 39.927 113.455 40.4373 113.548 41.1411C113.642 41.8331 113.776 42.6073 113.952 43.4636C114.139 44.3199 114.361 45.1469 114.619 45.9445C114.876 46.7304 115.163 47.3814 115.479 47.8975C115.806 48.4137 116.157 48.6717 116.532 48.6717Z" fill="#ED1C27"/>
<path d="M135.398 25.5871C135.878 25.5871 136.246 25.7513 136.503 26.0797C136.773 26.4082 136.907 26.8011 136.907 27.2586V46.7539C136.907 47.094 136.925 47.4283 136.96 47.7568C136.995 48.0735 137.141 48.3609 137.398 48.6189C137.714 48.9356 137.983 49.1937 138.206 49.3931C138.44 49.5808 138.557 49.9327 138.557 50.4488C138.557 50.9767 138.393 51.3755 138.065 51.6453C137.738 51.9151 137.322 52.05 136.819 52.05H129.097C128.594 52.05 128.179 51.9151 127.851 51.6453C127.524 51.3755 127.36 50.9767 127.36 50.4488C127.36 50.0031 127.442 49.6805 127.606 49.4811C127.769 49.27 127.962 49.0881 128.185 48.9356C128.407 48.7832 128.6 48.572 128.764 48.3022C128.928 48.0207 129.01 47.5808 129.01 46.9826V32.713C129.01 32.15 128.916 31.7395 128.729 31.4814C128.542 31.2233 128.319 31.0298 128.062 30.9008C127.816 30.76 127.6 30.6016 127.413 30.4257C127.225 30.238 127.132 29.9389 127.132 29.5283C127.132 29.0591 127.284 28.6955 127.588 28.4375C127.892 28.1794 128.237 27.9741 128.624 27.8216L132.537 26.2909C133.005 26.1032 133.473 25.939 133.941 25.7982C134.409 25.6574 134.895 25.5871 135.398 25.5871Z" fill="#ED1C27"/>
<path fill-rule="evenodd" clip-rule="evenodd" d="M161.845 0.174132C164.125 0.75444 164.842 2.99162 163.184 4.16825C162.703 4.50943 161.963 4.86762 160.841 5.30085C157.65 6.5305 156.866 7.79517 157.227 9.83825C157.227 9.83825 157.187 7.81218 160.54 6.94572C163.893 6.08026 166.001 5.50796 165.941 3.23875C165.881 0.969553 164.214 -0.527239 161.845 0.174132Z" fill="#ED1C27"/>
<path fill-rule="evenodd" clip-rule="evenodd" d="M150.917 19.2803C149.954 13.0209 154.6 11.1169 160.173 10.5917C162.951 10.3295 165.611 10.0794 166.676 8.13035C166.713 8.06331 166.748 7.99428 166.779 7.92424C167.067 7.2849 167.08 6.62355 166.835 6.02523C166.47 5.13376 165.614 4.50643 164.755 4.12223L165.301 2.90758C166.743 3.08868 170.184 5.3879 168.663 8.76268C168.611 8.87874 168.552 8.99581 168.488 9.11387C166.897 12.0234 163.704 12.3246 160.367 12.6387C156.689 12.9849 150.996 13.4772 152.036 19.0141L150.917 19.2803Z" fill="#ED1C27"/>
<path fill-rule="evenodd" clip-rule="evenodd" d="M152.769 29.0944C148.797 28.1459 146.377 23.7456 149.4 19.9076C150.539 18.4608 152.238 17.6014 154.111 17.0661C155.864 16.5648 157.785 16.3517 159.511 16.1946C159.975 16.1526 160.112 16.1416 160.259 16.1296C162.696 15.9375 170.465 15.6223 170.277 12.0264C170.217 10.8578 169.335 9.53809 167.947 9.06584L168.298 8.06831C170.588 8.75668 172.515 10.9468 171.799 13.4121C171.65 13.9244 171.394 14.4257 171.015 14.8979C168.911 17.5173 163.203 17.9666 160.421 18.1857C160.01 18.2177 159.742 18.2387 159.697 18.2427C158.084 18.3888 156.293 18.5889 154.677 19.0501C152.486 19.6765 150.25 20.795 149.734 23.1513C149.239 25.4135 150.813 27.4796 152.927 27.9388L152.769 29.0944Z" fill="#ED1C27"/>
<path fill-rule="evenodd" clip-rule="evenodd" d="M166.677 21.3173C169.676 20.696 173.056 19.5744 172.932 17.4443C172.907 17.0361 172.758 16.6178 172.502 16.2406C173.612 16.4718 176.875 21.0192 167.898 23.3244C162.42 24.7311 157.267 24.565 155.177 27.3305C153.52 29.5217 155.117 34.7584 157.244 39.2618C159.119 43.2309 161.723 46.9429 165.274 49.9135C165.274 49.9135 164.332 32.9325 172.95 23.8557C172.95 23.8557 169.225 30.059 168.348 37.699C167.559 44.5796 167.392 47.9384 167.793 53.0701C167.822 53.4263 167.653 53.7465 167.344 53.9256C167.035 54.1047 166.673 54.0927 166.375 53.8936C164.248 52.4598 160.326 49.2771 156.92 43.5431C154.971 40.2624 153.74 37.3068 153.018 34.8045C149.465 22.4889 156.573 23.4104 166.677 21.3173Z" fill="#ED1C27"/>
</svg>
