<?xml version="1.0" encoding="iso-8859-1"?>
<!-- Uploaded to: SVG Repo, www.svgrepo.com, Generator: SVG Repo Mixer Tools -->
<svg version="1.1" id="Layer_1" xmlns="http://www.w3.org/2000/svg" xmlns:xlink="http://www.w3.org/1999/xlink" 
	 viewBox="0 0 443.801 443.801" xml:space="preserve">
<g>
	<path style="fill:#FFD41D;" d="M323.896,112.321v177.54c0,11.71-9.49,21.21-21.2,21.21h-161.58c-11.71,0-21.21-9.5-21.21-21.21
		v-177.54c0-56.33,45.67-102,102-102S323.896,55.991,323.896,112.321z"/>
	<path style="fill:#F9DB87;" d="M251.156,311.071v103.48c0,16.16-13.1,29.25-29.25,29.25c-16.16,0-29.25-13.09-29.25-29.25v-103.48
		H251.156z"/>
	<path style="fill:#E5B94C;" d="M251.156,311.071v103.48c0,16.16-13.1,29.25-29.25,29.25v-132.73L251.156,311.071L251.156,311.071z"
		/>
	<path style="fill:#FFA91F;" d="M323.896,112.321v177.54c0,11.71-9.49,21.21-21.2,21.21h-80.79V10.321
		C278.236,10.321,323.896,55.991,323.896,112.321z"/>
	<rect x="192.656" y="311.071" style="fill:#E5B94C;" width="58.5" height="22.9"/>
	<path style="fill:#B5600B;" d="M328.476,106.58V226c0,11.76-9.55,21.31-21.31,21.31c-5.9,0-11.23-2.39-15.08-6.25
		c-3.86-3.85-6.24-9.18-6.24-15.06v-50.37c0-11.78-9.54-21.32-21.32-21.32c-5.89,0-11.22,2.39-15.07,6.24
		c-3.86,3.87-6.24,9.2-6.24,15.08v71.7c0,11.77-9.53,21.31-21.31,21.32h-0.01c-5.88,0-11.21-2.4-15.07-6.25
		c-3.86-3.86-6.25-9.19-6.25-15.07v-71.7c0-11.78-9.54-21.32-21.31-21.32c-5.89,0-11.22,2.39-15.07,6.24
		c-3.87,3.87-6.25,9.2-6.25,15.08V196c0,11.76-9.54,21.31-21.31,21.31c-5.88,0-11.21-2.39-15.08-6.25
		c-3.85-3.85-6.23-9.18-6.23-15.06v-89.42C115.326,47.72,163.046,0,221.906,0S328.476,47.72,328.476,106.58z"/>
	<path style="fill:#FFFFFF;" d="M197.411,24.865c-2.402,0-4.609-1.586-5.292-4.013c-0.822-2.924,0.881-5.961,3.806-6.783
		c3.684-1.036,7.473-1.858,11.262-2.443c3.003-0.465,5.812,1.594,6.275,4.596s-1.594,5.812-4.596,6.275
		c-3.353,0.518-6.705,1.245-9.963,2.161C198.406,24.798,197.904,24.865,197.411,24.865z"/>
	<path style="fill:#FFFFFF;" d="M131.324,132.33c-3.038,0-5.5-2.462-5.5-5.5v-20.25c0-35.68,19.649-68.244,51.279-84.982
		c2.686-1.422,6.013-0.396,7.434,2.289s0.396,6.013-2.289,7.434c-28.019,14.828-45.425,43.666-45.425,75.26v20.25
		C136.824,129.867,134.363,132.33,131.324,132.33z"/>
	<path style="fill:#914D09;" d="M328.476,106.58V226c0,11.76-9.55,21.31-21.31,21.31c-5.9,0-11.23-2.39-15.08-6.25
		c-3.86-3.85-6.24-9.18-6.24-15.06v-50.37c0-11.78-9.54-21.32-21.32-21.32c-5.89,0-11.22,2.39-15.07,6.24
		c-3.86,3.87-6.24,9.2-6.24,15.08v71.7c0,11.77-9.53,21.31-21.31,21.32V0C280.766,0,328.476,47.72,328.476,106.58z"/>
</g>
</svg>