<?xml version="1.0" encoding="utf-8"?>
<!-- Uploaded to: SVG Repo, www.svgrepo.com, Generator: SVG Repo Mixer Tools -->
<svg width="800px" height="800px" viewBox="-8.63 0 138.146 138.146" xmlns="http://www.w3.org/2000/svg">
  <g id="ice_cream" data-name="ice cream" transform="translate(-860.133 719.127)">
    <path id="path260" d="M933.255-696.058,922.6-691.6l-5.128,1.213-6.205-.809s-.944-4.587-1.077-4.857-4.723,1.753-4.723,1.753-4.049,5.128-4.317,5.532-2.968,6.611-2.968,7.42,4.181,2.024,4.181,2.024l6.477,4.587,5.935,7.825,4.992,1.888,6.609-.809,1.081-5.532,4.856-8.229,6.745-4.991.809-3.777-6.612-7.691" fill="#62c89f"/>
    <path id="path262" d="M929.344-706.31l-4.721-3.643-5.6,2.023s-3.305,2.7-3.845,3.1-2.159,7.555-2.159,8.743a10.94,10.94,0,0,0,.808,3.129l2.7,1.213,7.151-1.079,8.5-3.913v-3.777l-2.833-5.8" fill="#ed395e"/>
    <path id="path264" d="M911.266-673.529l-13.085-7.824-9.984.8L875.111-673.8s-6.611,8.769-7.016,8.769h14.3l27.792,1.349,2.832-2.159-1.755-7.691" fill="#97d552"/>
    <path id="path266" d="M972.515-669.886l-7.151-11.467-6.88-5.8H950.93l-6.341.675-8.769,2.563-9.444,18.079,4.453.809,10.388-.944,32.107.944-.808-4.857" fill="#fbcb3a"/>
    <path id="path268" d="M863.509-663.68l4.577,20.776,11.477,16.593,12.816,8.5,15.379,4.048,19.292.944,16.191-3.373,12.007-5.8,7.42-6.069,6.609-7.555,5.8-13.761,3.236-14.3H863.509" fill="#a687cb"/>
    <path id="path270" d="M929.208-593.124H911.47v-19.089h17.739v19.089" fill="#8c6dbd"/>
    <path id="path272" d="M936.494-584.893H905.06v-6.341h31.433v6.341" fill="#8c6dbd"/>
    <path id="path274" d="M924.842-595.371H916.3L913.8-610c2.167.156,4.427.24,6.772.24s4.6-.084,6.769-.24Zm8.407,8.635H907.9l4.309-2.88h16.728Zm-61.409-55.152a58.029,58.029,0,0,1-4.284-12.079,63.661,63.661,0,0,1-1.323-7.58H974.916a64.965,64.965,0,0,1-1.239,7.217,57.82,57.82,0,0,1-4.251,12.192A46.371,46.371,0,0,1,961.019-630c-9.347,9.612-22.952,14.485-40.443,14.485-17.445,0-31.031-4.848-40.373-14.409A46.381,46.381,0,0,1,871.839-641.888Zm5.708-31.047a20.23,20.23,0,0,1,5.612-3.967v3.819h0a2.877,2.877,0,0,0,2.88,2.88,2.875,2.875,0,0,0,2.876-2.88h0v-5.547a20.154,20.154,0,0,1,2.879-.208,20.2,20.2,0,0,1,2.879.208v2.672h0a2.873,2.873,0,0,0,2.875,2.875,2.877,2.877,0,0,0,2.88-2.875v-.944a20.112,20.112,0,0,1,5.612,3.967,20.145,20.145,0,0,1,3.975,5.629H873.577a20.025,20.025,0,0,1,3.971-5.629Zm28.779-17.272a20.847,20.847,0,0,1,2.74-2.289v5.025h0a2.878,2.878,0,0,0,2.875,2.88,2.877,2.877,0,0,0,2.875-2.88v-.679a13.341,13.341,0,0,0,2.88.349v8.963h0a2.878,2.878,0,0,0,2.881,2.88,2.883,2.883,0,0,0,2.877-2.88v-9.716a25.852,25.852,0,0,0,2.876-.937v2.02h0a2.881,2.881,0,0,0,2.879,2.88,2.876,2.876,0,0,0,2.875-2.88V-692.5a21.268,21.268,0,0,1,2.737,2.289,21.514,21.514,0,0,1,2.391,2.88,25.925,25.925,0,0,0-13.6,20.021h-7.385a25.968,25.968,0,0,0-14.653-15.376,20.131,20.131,0,0,1,4.755-7.525Zm9.5-8.6a19.114,19.114,0,0,1,5.375-7.64,4.455,4.455,0,0,1,2.348-1.172h0c.256,0,1.017.127,2.323,1.3a2.871,2.871,0,0,0-.295,3.908,2.873,2.873,0,0,0,3.88.569,5.419,5.419,0,0,1,.775,2.108c.021.287.084,1.063-1.679,2.475a18.764,18.764,0,0,1-10.544,3.709,4.437,4.437,0,0,1-2.757-.6c-.22-.273-.48-1.876.575-4.653Zm33.524,22.849a2.879,2.879,0,0,0,2.88,2.875,2.878,2.878,0,0,0,2.88-2.875v-7.8a20.051,20.051,0,0,1,8.489,5.071,20.028,20.028,0,0,1,5.7,11.384H929.412a19.967,19.967,0,0,1,5.7-11.384,20.085,20.085,0,0,1,5.611-3.971v3.823h0a2.877,2.877,0,0,0,2.876,2.88,2.879,2.879,0,0,0,2.879-2.88v-5.552a20.408,20.408,0,0,1,2.876-.2v8.633Zm31.661,8.652H975.1a25.9,25.9,0,0,0-25.747-23.045,25.878,25.878,0,0,0-6.683.877,26.02,26.02,0,0,0-7.125-7.623,7.887,7.887,0,0,0-.243-5.843,2.892,2.892,0,0,0,.611-.372,2.873,2.873,0,0,0,.449-4.047,2.879,2.879,0,0,0-4.047-.447h0a2.879,2.879,0,0,0,.452-4.047,2.873,2.873,0,0,0-4.043-.447,2.755,2.755,0,0,0-.5.515,8.258,8.258,0,0,0-4.676-1.585,9.542,9.542,0,0,0-5.944,2.424,24.76,24.76,0,0,0-7.588,11.328,26,26,0,0,0-13.991,15.371,25.877,25.877,0,0,0-4.235-.345,25.77,25.77,0,0,0-11.509,2.693l-14.617-35.451h0a2.872,2.872,0,0,0-2.656-1.78,2.876,2.876,0,0,0-2.879,2.876,2.932,2.932,0,0,0,.215,1.1h0l.008.017s0,.008,0,.016l15.008,36.405a25.955,25.955,0,0,0-8.005,11.412h-7.225s-1.384,49.363,47.72,56.648l2.609,15.287h0l-12.932,8.635h-5.74a2.862,2.862,0,0,0-2.037.843,2.883,2.883,0,0,0,0,4.068,2.88,2.88,0,0,0,2.037.844h57.558a2.87,2.87,0,0,0,2.036-.844,2.873,2.873,0,0,0,0-4.068,2.852,2.852,0,0,0-2.036-.843h-5.737l-12.929-8.635h0l2.609-15.287c49.1-7.285,47.719-56.648,47.719-56.648" fill="#100f0d"/>
  </g>
</svg>