<?xml version="1.0" encoding="iso-8859-1"?>
<!-- Uploaded to: SVG Repo, www.svgrepo.com, Generator: SVG Repo Mixer Tools -->
<svg version="1.1" id="Layer_1" xmlns="http://www.w3.org/2000/svg" xmlns:xlink="http://www.w3.org/1999/xlink" 
	 viewBox="0 0 513.6 513.6" xml:space="preserve">
<g>
	<polygon style="fill:#FFA726;" points="372.8,116.4 357.6,180 356.8,179.2 324.4,147.6 356.4,116.4 360.8,116.4 	"/>
	<polygon style="fill:#FFA726;" points="356.8,178.8 355.2,183.6 324.8,214 290.8,180 324.4,146.4 	"/>
	<polygon style="fill:#FFA726;" points="356.4,116.4 324,147.2 292.8,115.2 292.8,116.4 	"/>
	<polygon style="fill:#FFA726;" points="355.2,183.6 356.8,178.8 357.6,178.8 344.4,233.6 344,233.2 324.8,214 	"/>
</g>
<path style="fill:#E1BEE7;" d="M344.8,112.4h-51.6h-2.4h-68.4h-53.6h-13.6h-6.4c0-56,48.4-108,108-108s108,52,108,108h-6H344.8z"/>
<g>
	<polygon style="fill:#FFA726;" points="344.4,233.6 331.6,288.4 331.2,288.4 324.4,281.6 290.8,248 324.8,214 344,233.2 	"/>
	<polygon style="fill:#FFA726;" points="324.4,281.6 331.2,288.4 331.6,288.4 318.4,343.2 318.4,343.2 290.8,315.6 	"/>
	<polygon style="fill:#FFA726;" points="290.8,180 324.8,214 290.8,248 256.8,214 	"/>
	<polygon style="fill:#FFA726;" points="324.4,281.6 290.8,315.6 256.8,282 290.8,248 	"/>
	<polygon style="fill:#FFA726;" points="318.4,343.2 314.4,360 314,360 290.8,383.2 256.8,349.6 290.8,315.6 	"/>
	<polygon style="fill:#FFA726;" points="288.8,116.4 292.8,116.4 292.8,115.2 324,146.4 290.4,180 256.8,147.2 	"/>
	<polygon style="fill:#FFA726;" points="290.8,451.6 256.4,417.6 290.8,383.2 314,360 314.4,360 292.4,452.4 291.2,452 	"/>
	<polygon style="fill:#FFA726;" points="290.8,180 256.8,214 223.2,180.4 257.2,146.4 	"/>
	<polygon style="fill:#FFA726;" points="290.8,248 256.8,282 222.8,248 256.8,214 	"/>
	
		<rect x="232.499" y="359.174" transform="matrix(0.7071 -0.7071 0.7071 0.7071 -195.7598 293.7423)" style="fill:#FFA726;" width="48.4" height="48"/>
	
		<rect x="232.636" y="427.414" transform="matrix(0.7071 -0.7071 0.7071 0.7071 -244.1725 313.7434)" style="fill:#FFA726;" width="48" height="48.4"/>
	
		<rect x="233.128" y="292.121" transform="matrix(0.7071 -0.7071 0.7071 0.7071 -148.1376 274.2065)" style="fill:#FFA726;" width="47.6" height="47.6"/>
	<polygon style="fill:#FFA726;" points="288.8,116.4 257.2,148.4 225.2,116.4 	"/>
	<polygon style="fill:#FFA726;" points="225.2,116.4 257.2,147.2 223.2,180.8 188.8,147.2 220.8,116.4 	"/>
	<polygon style="fill:#FFA726;" points="256.8,349.6 222.8,383.6 199.6,360.4 199.2,360.4 194.8,341.2 198,340.4 223.2,315.6 	"/>
	
		<rect x="199.273" y="257.9" transform="matrix(0.7071 -0.7071 0.7071 0.7071 -133.9965 240.303)" style="fill:#FFA726;" width="47.6" height="48"/>
	<polygon style="fill:#FFA726;" points="256.8,214 222.8,248 189.2,214.4 223.2,180.4 	"/>
	<polygon style="fill:#FFA726;" points="256.4,417.6 222.8,451.2 220.8,452 208,397.6 209.2,397.2 222.8,383.6 	"/>
	<path style="fill:#FFA726;" d="M284.8,485.2c-11.6,32-43.6,32.8-55.6,0.4l-8-34l1.6-0.4l34,34l34-34l0.4,0.4l1.2,0.4L284.8,485.2z"
		/>
	<polygon style="fill:#FFA726;" points="223.2,180.4 189.2,214.4 157.6,182.4 158.8,176.4 188.8,146 	"/>
	<polygon style="fill:#FFA726;" points="223.2,315.6 198,340.4 194.8,341.2 182,288.4 182.4,288.4 189.2,281.6 	"/>
	<polygon style="fill:#FFA726;" points="222.8,383.6 209.2,397.2 208,397.6 199.2,360.4 199.6,360.4 	"/>
	<polygon style="fill:#FFA726;" points="189.2,214.4 170,233.2 169.2,233.6 157.2,182.8 157.6,182.4 	"/>
	<polygon style="fill:#FFA726;" points="182,288.4 169.2,233.6 170,233.2 189.2,214.4 222.8,248 189.2,281.6 182.4,288.4 	"/>
	<polygon style="fill:#FFA726;" points="188.8,148 157.2,116.4 220.8,116.4 	"/>
	<polygon style="fill:#FFA726;" points="158.8,176.4 157.6,182.4 157.2,183.6 140.8,116.4 157.2,116.4 188.8,147.2 	"/>
</g>
<path d="M256.4,513.6c-13.6,0-25.2-10-31.2-26.4v-0.4l-60-252.4l-28.4-117.2c-0.4-1.2,0-2.4,0.8-3.6c0.8-0.8,2-1.6,3.2-1.6h232
	c1.2,0,2.4,0.4,3.2,1.6c0.8,0.8,1.2,2.4,0.8,3.6l-58.4,243.6L288.8,486v0.4C282.4,503.2,270,513.6,256.4,513.6L256.4,513.6z
	 M232.8,484.8c4.8,13.2,14,20.8,24,20.8l0,0c10,0,19.2-8,24.4-21.6L354,178.8l14-58.4H146.4l27.2,112L232.8,484.8z"/>
<path d="M364.8,116c-2.4,0-4-1.6-4-4c0-57.2-46.8-104-104-104s-104,46.8-104,104c0,2.4-1.6,4-4,4s-4-1.6-4-4c0-62,50.4-112,112-112
	s112,50.4,112,112C368.8,114.4,366.8,116,364.8,116z"/>
<path d="M182.4,292.4c-1.2,0-2-0.4-2.8-1.2c-1.6-1.6-1.6-4,0-5.6L350,115.2c1.6-1.6,4-1.6,5.6,0s1.6,4,0,5.6L185.2,291.2
	C184.4,292,183.6,292.4,182.4,292.4z"/>
<path d="M170,237.2c-1.2,0-2-0.4-2.8-1.2c-1.6-1.6-1.6-4,0-5.6l116-116c1.6-1.6,4-1.6,5.6,0s1.6,4,0,5.6l-116,116
	C172,236.8,171.2,237.2,170,237.2z"/>
<path d="M158.8,180.4c-1.2,0-2-0.4-2.8-1.2c-1.6-1.6-1.6-4,0-5.6l60-60c1.6-1.6,4-1.6,5.6,0s1.6,4,0,5.6l-60,60
	C160.8,180,159.6,180.4,158.8,180.4z"/>
<path d="M143.2,128c-1.2,0-2-0.4-2.8-1.2c-1.6-1.6-1.6-4,0-5.6l5.2-5.2c1.6-1.6,4-1.6,5.6,0s1.6,4,0,5.6l-5.2,5.2
	C145.2,127.6,144.4,128,143.2,128z"/>
<path d="M244,502.4c-1.2,0-2-0.4-2.8-1.2c-1.6-1.6-1.6-4,0-5.6l46.8-46.8c1.6-1.6,4-1.6,5.6,0s1.6,4,0,5.6l-46.8,46.8
	C246,502,245.2,502.4,244,502.4z"/>
<path d="M222.8,455.2c-1.2,0-2-0.4-2.8-1.2c-1.6-1.6-1.6-4,0-5.6l91.6-91.6c1.6-1.6,4-1.6,5.6,0s1.6,4,0,5.6L225.6,454
	C224.8,454.8,223.6,455.2,222.8,455.2z"/>
<path d="M209.2,401.2c-1.2,0-2-0.4-2.8-1.2c-1.6-1.6-1.6-4,0-5.6l124.8-124.8c1.6-1.6,4-1.6,5.6,0s1.6,4,0,5.6L212,400
	C211.2,400.8,210,401.2,209.2,401.2z"/>
<path d="M198,344.4c-1.2,0-2-0.4-2.8-1.2c-1.6-1.6-1.6-4,0-5.6l157.2-157.2c1.6-1.6,4-1.6,5.6,0s1.6,4,0,5.6L200.8,343.2
	C200,344,199.2,344.4,198,344.4z"/>
<path d="M318.4,347.2c-1.2,0-2-0.4-2.8-1.2L154.8,185.2c-1.6-1.6-1.6-4,0-5.6s4-1.6,5.6,0l160.8,160.8c1.6,1.6,1.6,4,0,5.6
	C320.4,346.8,319.2,347.2,318.4,347.2z"/>
<path d="M303.6,400c-1.2,0-2-0.4-2.8-1.2L176.4,274.4c-1.6-1.6-1.6-4,0-5.6s4-1.6,5.6,0l124.4,124.4c1.6,1.6,1.6,4,0,5.6
	C305.6,399.6,304.8,400,303.6,400z"/>
<path d="M291.2,456c-1.2,0-2-0.4-2.8-1.2l-91.6-91.6c-1.6-1.6-1.6-4,0-5.6s4-1.6,5.6,0l91.6,91.6c1.6,1.6,1.6,4,0,5.6
	C293.2,455.6,292.4,456,291.2,456z"/>
<path d="M269.6,502.4c-1.2,0-2-0.4-2.8-1.2L220,454.4c-1.6-1.6-1.6-4,0-5.6s4-1.6,5.6,0l46.8,46.8c1.6,1.6,1.6,4,0,5.6
	C271.6,502,270.4,502.4,269.6,502.4z"/>
<path d="M370,127.6c-1.2,0-2-0.4-2.8-1.2l-6.4-6.4c-1.6-1.6-1.6-4,0-5.6s4-1.6,5.6,0l6.4,6.4c1.6,1.6,1.6,4,0,5.6
	C372,127.2,371.2,127.6,370,127.6z"/>
<path d="M356.8,182.8c-1.2,0-2-0.4-2.8-1.2l-62.4-62.4c-1.6-1.6-1.6-4,0-5.6s4-1.6,5.6,0l62.4,62.4c1.6,1.6,1.6,4,0,5.6
	C358.8,182.4,358,182.8,356.8,182.8z"/>
<path d="M344,237.2c-1.2,0-2-0.4-2.8-1.2L224.4,119.2c-1.6-1.6-1.6-4,0-5.6s4-1.6,5.6,0l116.8,116.8c1.6,1.6,1.6,4,0,5.6
	C346,236.8,344.8,237.2,344,237.2z"/>
<path d="M331.2,292.4c-1.2,0-2-0.4-2.8-1.2l-172-172c-1.6-1.6-1.6-4,0-5.6s4-1.6,5.6,0l172,172c1.6,1.6,1.6,4,0,5.6
	C333.2,292,332,292.4,331.2,292.4z"/>
<path d="M344.8,116.4c-2.4,0-4-1.6-4-4c0-12.8-2.8-24.8-8-36.4c-0.8-2,0-4.4,2-5.2c2-0.8,4.4,0,5.2,2c6,12.4,8.8,25.6,8.8,39.6
	C348.8,114.4,347.2,116.4,344.8,116.4z"/>
<path d="M164.8,116.4c-2.4,0-4-1.6-4-4V112c0-50,43.2-92,94-92c13.2,0,25.2,2.8,37.6,8.8c2,0.8,2.8,3.2,2,5.2s-3.2,2.8-5.2,2
	c-11.6-5.2-22.4-8-34.4-8c-46.8,0-86,38.4-86,84C168.8,114.4,167.2,116.4,164.8,116.4z"/>
</svg>