<svg xmlns="http://www.w3.org/2000/svg" width="3" height="120" viewBox="0 0 3 120" fill="none"><path fill-rule="evenodd" clip-rule="evenodd" d="M3 0C3 1.37473 2.46086 2.25748 1.92172 3.14023C1.42558 3.95251 0.929437 4.76735 0.929437 5.99987C0.929437 7.23239 1.42558 8.04595 1.92172 8.85952C2.46086 9.74226 3 10.625 3 11.9997C3 13.3745 2.46086 14.2572 1.92172 15.14C1.42558 15.9523 0.929437 16.7671 0.929437 17.9996C0.929437 19.2321 1.42558 20.0457 1.92172 20.858C2.46086 21.7433 3 22.6248 3 24.0008C3 25.3755 2.46086 26.2582 1.92172 27.141C1.42558 27.9533 0.929436 28.7681 0.929436 30.0006C0.929436 31.2332 1.42558 32.0467 1.92172 32.8603C2.46086 33.743 3 34.6245 3 36.0005C3 37.3752 2.46086 38.258 1.92172 39.1407C1.42558 39.953 0.929436 40.7679 0.929436 42.0004C0.929436 43.2329 1.42558 44.0465 1.92172 44.86C2.46086 45.7428 3 46.6255 3 48.0003C3 49.375 2.46086 50.2577 1.92172 51.1405C1.42558 51.9528 0.929435 52.7676 0.929435 54.0001C0.929435 55.2326 1.42558 56.0475 1.92172 56.8598C2.46086 57.7425 3 58.6253 3 60C3 61.3747 2.46086 62.2575 1.92172 63.1415C1.42558 63.9538 0.929435 64.7686 0.929435 65.9999C0.929435 67.2324 1.42558 68.046 1.92172 68.8595C2.46086 69.7435 3 70.625 3 71.9997C3 73.3745 2.46086 74.2572 1.92172 75.1412C1.42558 75.9535 0.929434 76.7684 0.929434 77.9996C0.929434 79.2321 1.42558 80.0457 1.92172 80.8593C2.46086 81.7433 3 82.6248 3 84.0008C3 85.3755 2.46086 86.2582 1.92172 87.141C1.42558 87.9533 0.929434 88.7681 0.929434 90.0006C0.929434 91.2332 1.42557 92.0467 1.92172 92.8603C2.46086 93.743 3 94.6245 3 96.0005C3 97.3765 2.46086 98.258 1.92172 99.142C1.42557 99.9543 0.929433 100.769 0.929433 102.002C0.929433 103.234 1.42557 104.048 1.92172 104.861C2.46086 105.743 3 106.626 3 108C3 109.375 2.46086 110.258 1.92172 111.14C1.42557 111.953 0.929433 112.768 0.929433 114C0.929433 115.233 1.42557 116.046 1.92171 116.86C2.46085 117.743 2.99999 118.625 2.99999 120L2.07056 120C2.07056 118.783 1.57772 117.974 1.08324 117.166C0.542443 116.279 -4.91998e-06 115.39 -4.85922e-06 114C-4.79845e-06 112.61 0.542443 111.721 1.08324 110.834C1.57772 110.025 2.07056 109.217 2.07056 108C2.07056 106.783 1.57772 105.975 1.08324 105.166C0.542443 104.28 -4.39545e-06 103.39 -4.33469e-06 102C-4.27393e-06 100.61 0.542443 99.7211 1.08324 98.8345C1.57772 98.0248 2.07056 97.2177 2.07056 96.0005C2.07056 94.7834 1.57772 93.9749 1.08324 93.1665C0.542444 92.2799 -3.87093e-06 91.3907 -3.81016e-06 90.0006C-3.7494e-06 88.6105 0.542444 87.7214 1.08324 86.8348C1.57773 86.0251 2.07056 85.2179 2.07056 84.0008C2.07056 82.7836 1.57773 81.9752 1.08324 81.1667C0.542444 80.2802 -3.3464e-06 79.391 -3.28564e-06 78.0009C-3.22488e-06 76.6108 0.542444 75.7216 1.08324 74.835C1.57773 74.0253 2.07056 73.2182 2.07056 72.001C2.07056 70.7839 1.57773 69.9767 1.08324 69.167C0.542445 68.2804 -2.82188e-06 67.3913 -2.76111e-06 66.0012C-2.70035e-06 64.611 0.542445 63.7219 1.08324 62.8353C1.57773 62.0256 2.07056 61.2184 2.07056 60.0013C2.07056 58.7841 1.57773 57.9757 1.08324 57.1673C0.542445 56.2807 -2.29735e-06 55.3915 -2.23659e-06 54.0014C-2.17583e-06 52.6113 0.542445 51.7221 1.08324 50.8356C1.57773 50.0258 2.07056 49.2187 2.07056 48.0015C2.07056 46.7844 1.57773 45.976 1.08324 45.1675C0.542446 44.2809 -1.77283e-06 43.3918 -1.71206e-06 42.0017C-1.6513e-06 40.6116 0.542446 39.7224 1.08324 38.8358C1.57773 38.0261 2.07056 37.2189 2.07056 36.0018C2.07056 34.7847 1.57773 33.9762 1.08324 33.1678C0.542446 32.2812 -1.2483e-06 31.392 -1.18754e-06 30.0019C-1.12677e-06 28.6118 0.542446 27.7227 1.08324 26.8361C1.57773 26.0264 2.07056 25.2192 2.07056 24.002C2.07056 22.7849 1.57773 21.9765 1.08324 21.168C0.542447 20.2814 -7.23776e-07 19.3923 -6.63012e-07 18.0022C-6.02249e-07 16.6121 0.542447 15.7229 1.08324 14.8363C1.57773 14.0266 2.07056 13.2194 2.07056 12.0023C2.07056 10.7852 1.57773 9.97672 1.08324 9.16829C0.542447 8.28169 -1.9925e-07 7.39254 -1.38487e-07 6.00243C-7.77233e-08 4.61233 0.542447 3.72317 1.08324 2.83658C1.57773 2.02558 2.07056 1.21714 2.07056 -4.0627e-08L3 0Z" fill="#ED1C27"></path></svg>